<?xml version="1.0" encoding="UTF-8"?>
<svg xmlns="http://www.w3.org/2000/svg" width="20" height="20" viewBox="0 0 20 20" class="w-6" style="transition: none !important; animation-duration: 0s !important; animation-delay: -0.0001s; animation-play-state: paused; animation-trigger: none; display: block; height: 20px; transition-property: none; visibility: visible; width: 24px"><path fill="currentColor" d="M10 0a10 10 0 1 0 10 10A10 10 0 0 0 10 0m0 3a3 3 0 1 1-3 3 3 3 0 0 1 3-3m0 14.2a7.2 7.2 0 0 1-6-3.22c.03-1.99 4-3.08 6-3.08s5.97 1.09 6 3.08a7.2 7.2 0 0 1-6 3.22" style="transition: none !important; animation-duration: 0s !important; animation-delay: -0.0001s; animation-play-state: paused; animation-trigger: none; fill: rgb(44, 41, 38); transform-origin: 0px 0px; transition-property: none; visibility: visible"></path></svg>