<?xml version="1.0" encoding="UTF-8"?>
<svg xmlns="http://www.w3.org/2000/svg" width="36" height="24" fill="none" viewBox="0 0 36 24" aria-label="Visa" style="transition: none !important; animation-duration: 0s !important; animation-delay: -0.0001s; animation-play-state: paused; animation-trigger: none; fill: none; height: 24px; transition-property: none; visibility: visible; width: 36px"><rect width="35" height="23" x="0.5" y="0.5" fill="#FFFCF8" stroke="#D9D9D9" rx="5.5" style="transition: none !important; animation-duration: 0s !important; animation-delay: -0.0001s; animation-play-state: paused; animation-trigger: none; fill: rgb(255, 252, 248); stroke: rgb(217, 217, 217); transform-origin: 0px 0px; transition-property: none; visibility: visible" /><path fill="#172B85" fill-rule="evenodd" d="M10.929 16.258H8.748l-1.635-6.066c-.078-.279-.243-.525-.485-.642a7.2 7.2 0 0 0-2-.642v-.233h3.514c.485 0 .848.35.909.758L9.9 13.81l2.18-5.134h2.12zm4.483 0h-2.06l1.696-7.583h2.06zm4.36-5.482c.061-.409.425-.642.85-.642a3.94 3.94 0 0 1 1.998.35l.364-1.633a5.4 5.4 0 0 0-1.878-.351c-1.999 0-3.454 1.05-3.454 2.508 0 1.11 1.03 1.692 1.758 2.042.787.35 1.09.584 1.03.933 0 .525-.607.759-1.212.759a5.3 5.3 0 0 1-2.12-.467l-.364 1.633a6.1 6.1 0 0 0 2.242.409c2.241.058 3.634-.992 3.634-2.567 0-1.983-2.847-2.1-2.847-2.974m10.057 5.482-1.636-7.583h-1.757c-.363 0-.727.233-.848.583l-3.028 7h2.12l.423-1.108h2.605l.243 1.108zm-3.09-5.54.606 2.857H25.65z" clip-rule="evenodd" style="transition: none !important; animation-duration: 0s !important; animation-delay: -0.0001s; animation-play-state: paused; animation-trigger: none; fill: rgb(23, 43, 133); fill-rule: evenodd; transform-origin: 0px 0px; transition-property: none; visibility: visible"></path></svg>