<svg xmlns="http://www.w3.org/2000/svg" width="20" height="20" viewBox="0 0 20 20">
  <path d="M17.04 17.043h-2.962v-4.64c0-1.107-.023-2.531-1.544-2.531-1.544 0-1.78 1.204-1.78 2.449v4.722H7.793V7.5h2.844v1.304h.039c.397-.75 1.364-1.54 2.808-1.54 3.001 0 3.556 1.974 3.556 4.545v5.234zM4.447 6.194a1.72 1.72 0 0 1-1.719-1.72 1.72 1.72 0 1 1 1.72 1.72zM5.92 17.043H2.972V7.5H5.92v9.543zM18.515 0H1.485A1.47 1.47 0 0 0 0 1.468v17.064A1.47 1.47 0 0 0 1.485 20h17.03A1.474 1.474 0 0 0 20 18.532V1.468A1.474 1.474 0 0 0 18.515 0z" fill="#6a6a6a"/>
</svg>
